solid zMinMax
 facet normal 0 0 -1
  outer loop
   vertex 0.03 0.02 -0.01
   vertex -0.01 0 -0.01
   vertex -0.01 0.02 -0.01
  endloop
 endfacet
 facet normal 0 0 -1
  outer loop
   vertex 0.03 0.02 -0.01
   vertex 0.03 0 -0.01
   vertex -0.01 0 -0.01
  endloop
 endfacet
 facet normal -0 0 1
  outer loop
   vertex 0.03 0.02 0.01
   vertex -0.01 0.02 0.01
   vertex -0.01 0 0.01
  endloop
 endfacet
 facet normal 0 0 1
  outer loop
   vertex 0.03 0.02 0.01
   vertex -0.01 0 0.01
   vertex 0.03 0 0.01
  endloop
 endfacet
endsolid zMinMax
