solid rim
 facet normal -1 0 0
  outer loop
   vertex 0 0 0
   vertex 0 0 0.01
   vertex 0 0.01 0
  endloop
 endfacet
 facet normal -1 0 0
  outer loop
   vertex 0 0.01 0
   vertex 0 0 0.01
   vertex 0 0.01 0.01
  endloop
 endfacet
 facet normal 1 0 0
  outer loop
   vertex 0.01 0 0.01
   vertex 0.01 0 0
   vertex 0.01 0.01 0
  endloop
 endfacet
 facet normal 1 -0 0
  outer loop
   vertex 0.01 0 0.01
   vertex 0.01 0.01 0
   vertex 0.01 0.01 0.01
  endloop
 endfacet
 facet normal 0 -1 0
  outer loop
   vertex 0.01 0 0
   vertex 0.01 0 0.01
   vertex 0 0 0
  endloop
 endfacet
 facet normal 0 -1 0
  outer loop
   vertex 0 0 0
   vertex 0.01 0 0.01
   vertex 0 0 0.01
  endloop
 endfacet
 facet normal 0 1 0
  outer loop
   vertex 0.01 0.01 0.01
   vertex 0.01 0.01 0
   vertex 0 0.01 0
  endloop
 endfacet
 facet normal 0 1 0
  outer loop
   vertex 0.01 0.01 0.01
   vertex 0 0.01 0
   vertex 0 0.01 0.01
  endloop
 endfacet
 facet normal 0 0 -1
  outer loop
   vertex 0 0.01 0
   vertex 0.01 0.01 0
   vertex 0 0 0
  endloop
 endfacet
 facet normal 0 0 -1
  outer loop
   vertex 0 0 0
   vertex 0.01 0.01 0
   vertex 0.01 0 0
  endloop
 endfacet
 facet normal 0 0 1
  outer loop
   vertex 0.01 0.01 0.01
   vertex 0 0.01 0.01
   vertex 0 0 0.01
  endloop
 endfacet
 facet normal 0 0 1
  outer loop
   vertex 0.01 0.01 0.01
   vertex 0 0 0.01
   vertex 0.01 0 0.01
  endloop
 endfacet
endsolid rim
